<mxfile host="Electron" agent="Mozilla/5.0 (Windows NT 10.0; Win64; x64) AppleWebKit/537.36 (KHTML, like Gecko) draw.io/24.7.5 Chrome/126.0.6478.183 Electron/31.3.0 Safari/537.36" version="24.7.5">
  <diagram name="Page-1" id="NBcsQId2VyDKgCuyEAON">
    <mxGraphModel dx="1050" dy="621" grid="1" gridSize="10" guides="1" tooltips="1" connect="1" arrows="1" fold="1" page="1" pageScale="1" pageWidth="850" pageHeight="1100" math="0" shadow="0">
      <root>
        <mxCell id="0" />
        <mxCell id="1" parent="0" />
        <mxCell id="SN-VDwIhpwIg5hKtRy8E-2" value="GCP Cloud VM&lt;div&gt;&lt;br&gt;&lt;/div&gt;" style="points=[[0,0],[0.25,0],[0.5,0],[0.75,0],[1,0],[1,0.25],[1,0.5],[1,0.75],[1,1],[0.75,1],[0.5,1],[0.25,1],[0,1],[0,0.75],[0,0.5],[0,0.25]];outlineConnect=0;gradientColor=none;html=1;whiteSpace=wrap;fontSize=12;fontStyle=0;container=1;pointerEvents=0;collapsible=0;recursiveResize=0;shape=mxgraph.aws4.group;grIcon=mxgraph.aws4.group_aws_cloud;strokeColor=#010203;fillColor=none;verticalAlign=top;align=left;spacingLeft=30;fontColor=#010203;dashed=0;" vertex="1" parent="1">
          <mxGeometry x="310" y="100" width="380" height="240" as="geometry" />
        </mxCell>
        <mxCell id="SN-VDwIhpwIg5hKtRy8E-14" style="edgeStyle=orthogonalEdgeStyle;rounded=0;orthogonalLoop=1;jettySize=auto;html=1;strokeColor=#010203;" edge="1" parent="SN-VDwIhpwIg5hKtRy8E-2" source="SN-VDwIhpwIg5hKtRy8E-5" target="SN-VDwIhpwIg5hKtRy8E-11">
          <mxGeometry relative="1" as="geometry" />
        </mxCell>
        <mxCell id="SN-VDwIhpwIg5hKtRy8E-5" value="Nginx Web Proxy" style="sketch=0;outlineConnect=0;dashed=0;verticalLabelPosition=bottom;verticalAlign=top;align=center;html=1;fontSize=12;fontStyle=0;aspect=fixed;pointerEvents=1;shape=mxgraph.aws4.traditional_server;fontColor=#010203;" vertex="1" parent="SN-VDwIhpwIg5hKtRy8E-2">
          <mxGeometry x="50" y="60" width="56.54" height="98" as="geometry" />
        </mxCell>
        <mxCell id="SN-VDwIhpwIg5hKtRy8E-11" value="Local Next.js Server" style="sketch=0;outlineConnect=0;dashed=0;verticalLabelPosition=bottom;verticalAlign=top;align=center;html=1;fontSize=12;fontStyle=0;aspect=fixed;pointerEvents=1;shape=mxgraph.aws4.servers;fontColor=#010203;" vertex="1" parent="SN-VDwIhpwIg5hKtRy8E-2">
          <mxGeometry x="210" y="59" width="100" height="100" as="geometry" />
        </mxCell>
        <mxCell id="SN-VDwIhpwIg5hKtRy8E-8" style="edgeStyle=orthogonalEdgeStyle;rounded=0;orthogonalLoop=1;jettySize=auto;html=1;fontColor=#010203;strokeColor=#010203;" edge="1" parent="1" source="SN-VDwIhpwIg5hKtRy8E-6" target="SN-VDwIhpwIg5hKtRy8E-5">
          <mxGeometry relative="1" as="geometry">
            <Array as="points">
              <mxPoint x="269" y="138" />
              <mxPoint x="269" y="200" />
            </Array>
          </mxGeometry>
        </mxCell>
        <mxCell id="SN-VDwIhpwIg5hKtRy8E-6" value="" style="sketch=0;outlineConnect=0;dashed=0;verticalLabelPosition=bottom;verticalAlign=top;align=center;html=1;fontSize=12;fontStyle=0;aspect=fixed;pointerEvents=1;shape=mxgraph.aws4.client;fontColor=#010203;" vertex="1" parent="1">
          <mxGeometry x="100" y="100" width="78" height="76" as="geometry" />
        </mxCell>
        <mxCell id="SN-VDwIhpwIg5hKtRy8E-10" style="edgeStyle=orthogonalEdgeStyle;rounded=0;orthogonalLoop=1;jettySize=auto;html=1;fontColor=#010203;strokeColor=#010203;" edge="1" parent="1" source="SN-VDwIhpwIg5hKtRy8E-7" target="SN-VDwIhpwIg5hKtRy8E-5">
          <mxGeometry relative="1" as="geometry">
            <Array as="points">
              <mxPoint x="270" y="267" />
              <mxPoint x="270" y="220" />
            </Array>
          </mxGeometry>
        </mxCell>
        <mxCell id="SN-VDwIhpwIg5hKtRy8E-7" value="" style="sketch=0;outlineConnect=0;dashed=0;verticalLabelPosition=bottom;verticalAlign=top;align=center;html=1;fontSize=12;fontStyle=0;aspect=fixed;pointerEvents=1;shape=mxgraph.aws4.mobile_client;fontColor=#010203;" vertex="1" parent="1">
          <mxGeometry x="109" y="210" width="60" height="114.15" as="geometry" />
        </mxCell>
        <mxCell id="SN-VDwIhpwIg5hKtRy8E-18" value="User Requests" style="text;html=1;align=center;verticalAlign=middle;resizable=0;points=[];autosize=1;strokeColor=none;fillColor=none;fontColor=#010203;" vertex="1" parent="1">
          <mxGeometry x="169" y="190" width="100" height="30" as="geometry" />
        </mxCell>
        <mxCell id="SN-VDwIhpwIg5hKtRy8E-19" style="edgeStyle=orthogonalEdgeStyle;rounded=0;orthogonalLoop=1;jettySize=auto;html=1;exitX=0.5;exitY=1;exitDx=0;exitDy=0;" edge="1" parent="1" source="SN-VDwIhpwIg5hKtRy8E-2" target="SN-VDwIhpwIg5hKtRy8E-2">
          <mxGeometry relative="1" as="geometry" />
        </mxCell>
      </root>
    </mxGraphModel>
  </diagram>
</mxfile>
